<svg viewBox="0 0 2053 927" xmlns="http://www.w3.org/2000/svg" 
preserveAspectRatio="xMidYMid meet">
<path d="M0 0 C677.49 0 1354.98 0 2053 0 C2053 305.91 2053 611.82 2053 927 
C1375.51 927 698.02 927 0 927 C0 621.09 0 315.18 0 0 Z " fill="#FEFEFE" 
transform="translate(0,0)"/>
<path d="M0 0 C0.79744629 0.14002441 1.59489258 0.28004883 2.41650391 
0.42431641 C48.05207271 8.66799541 88.3807732 35.12237164 116 72 
C116.63808594 72.84304687 117.27617188 73.68609375 117.93359375 74.5546875 
C133.81586579 96.34237709 144.67125785 122.44107233 149 149 C149.16628906 
149.8362793 149.33257813 150.67255859 149.50390625 151.53417969 
C151.11632519 160.05984482 151.39794237 168.47633515 151.375 177.125 
C151.37478851 177.86411621 151.37457703 178.60323242 151.37435913 
179.36474609 C151.24455695 225.16338433 135.45623624 269.27867234 103.9375 
302.88671875 C101.92674538 305.02829188 101.92674538 305.02829188 
99.96484375 307.57421875 C97.67712522 310.39861877 95.19307106 
312.59028498 92.4296875 314.93359375 C90.68240922 316.41962302 88.96129077 
317.93661388 87.2578125 319.47265625 C62.46627193 341.59913659 29.7946954 
356.20165623 -3 361 C-4.58748047 361.30357422 -4.58748047 361.30357422 
-6.20703125 361.61328125 C-37.60895169 367.19500109 -72.84264956 
361.45436438 -102 349 C-102.66918457 348.71817871 -103.33836914 
348.43635742 -104.02783203 348.14599609 C-121.43047167 340.71118119 
-136.96986652 330.66133997 -151 318 C-152.41563293 316.79045575 
-153.83216551 315.58196282 -155.25 314.375 C-186.06842788 287.0308834 
-205.6062909 248.48708125 -212 208 C-212.20753906 206.70707031 
-212.41507813 205.41414062 -212.62890625 204.08203125 C-219.11508138 
159.58042192 -207.4907964 111.07671244 -180.66259766 74.77490234 
C-179.45221391 73.17528244 -178.22641614 71.58736137 -177 70 
C-176.34128906 69.11828125 -175.68257812 68.2365625 -175.00390625 
67.328125 C-146.4929503 30.64736296 -101.92060823 4.40021193 -55.6171875 
-1.53515625 C-37.56189815 -3.32713525 -17.83892496 -3.35558725 0 0 Z " 
fill="#FDFDFD" transform="translate(1047,69)"/>
<path d="M0 0 C4.09185779 1.65058032 6.97874133 4.57174926 10.125 7.5625 
C11.29119049 8.65545622 12.45786149 9.74789995 13.625 10.83984375 
C14.48544922 11.64784424 14.48544922 11.64784424 15.36328125 12.47216797 
C17.59145391 14.55210599 19.85471193 16.59120027 22.125 18.625 
C27.44096634 23.3901343 32.72164021 28.19328072 38 33 C33.06766005 
38.3743419 27.17674618 42.2085367 21.15429688 46.27148438 C20.36474609 
46.82255859 19.57519531 47.37363281 18.76171875 47.94140625 C18.03944092 
48.43326416 17.31716309 48.92512207 16.57299805 49.43188477 C16.05390869 
49.94936279 15.53481934 50.46684082 15 51 C15 55.4823952 16.35674461 
58.18036961 18.3125 62.0625 C28.11382528 82.26392956 28.36631151 
105.43444908 23 127 C22.80664062 127.88171875 22.61328125 128.7634375 
22.4140625 129.671875 C17.43654237 149.45266928 3.20577953 165.26631963 
-13.8125 175.6875 C-26.08507172 182.59673703 -38.18028005 186.45659349 
-52.23046875 185.94921875 C-54.18812084 185.90929749 -56.14580523 
185.87093552 -58.10351562 185.83398438 C-61.14065524 185.7662533 
-64.17610347 185.68789831 -67.2121582 185.58178711 C-80.16187516 
185.15297458 -90.09155991 185.37959951 -101 193 C-103.21370051 
194.78657757 -103.21370051 194.78657757 -103.1953125 197.1640625 
C-103.17210937 197.97617187 -103.14890625 198.78828125 -103.125 199.625 
C-103.10695313 200.44226563 -103.08890625 201.25953125 -103.0703125 
202.1015625 C-103.04710937 202.72804688 -103.02390625 203.35453125 -103 
204 C-92.09359391 208.08216706 -81.16267159 205.69226904 -70.0625 203.5 
C-59.29715833 201.54198928 -48.95547617 200.52934972 -38 200.5625 
C-36.20574585 200.56636719 -36.20574585 200.56636719 -34.37524414 
200.5703125 C-12.86058126 200.93046589 8.62370101 205.35679647 24.30078125 
221.0234375 C36.71094771 234.23384125 38.62332902 250.54533273 38.3359375 
267.8359375 C37.76582706 281.05929814 33.08745235 292.6273514 25 303 
C24.55011719 303.61488281 24.10023438 304.22976563 23.63671875 
304.86328125 C9.35188521 323.19337739 -18.73319278 333.41563455 -41 337 
C-50.57784031 338.08336108 -60.18443662 338.20537678 -69.8125 338.1875 
C-70.87206406 338.18559662 -70.87206406 338.18559662 -71.95303345 
338.18365479 C-105.24745963 338.06968923 -137.38480893 328.57533474 -164 
308 C-162.54197098 303.46670287 -159.97772718 300.32246012 -156.875 
296.8125 C-155.87138906 295.6519115 -154.86879137 294.49044607 
-153.8671875 293.328125 C-153.37573242 292.76029297 -152.88427734 
292.19246094 -152.37792969 291.60742188 C-149.13952336 287.82966368 
-146.07737223 283.90894157 -143 280 C-142.30197266 279.11368896 
-142.30197266 279.11368896 -141.58984375 278.20947266 C-138.38851637 
274.14333657 -135.19263823 270.07296127 -132 266 C-128.27739777 
266.59223217 -126.32227199 268.18843851 -123.5 270.625 C-103.01640708 
287.38975614 -79.2184121 291.96416166 -53.41992188 289.78173828 
C-40.33816424 288.28945278 -27.02735767 285.34674072 -18 275 C-15.86975441 
271.70335765 -15.70221125 268.9511729 -15.6875 265.0625 C-15.66236328 
263.53302734 -15.66236328 263.53302734 -15.63671875 261.97265625 
C-16.04655482 258.61905141 -17.16050098 256.79079666 -19 254 C-19 253.34 
-19 252.68 -19 252 C-19.680625 251.731875 -20.36125 251.46375 -21.0625 
251.1875 C-23.17267981 250.33444859 -25.25393828 249.40851968 -27.3125 
248.4375 C-41.78464111 242.79581787 -61.43846628 245.20750776 -76.4375 
247.5 C-98.6705334 250.84556813 -121.94405858 251.3981718 -142.0625 
240.3125 C-149.77910087 234.2377291 -155.93809443 227.0779198 
-157.25097656 217.09082031 C-158.35163548 205.29330542 -156.19913213 
196.87275752 -148.94921875 187.2890625 C-143.98284469 181.4140978 
-138.41187506 177.17491692 -132 173 C-130.65875733 172.0106336 
-129.32272598 171.01398903 -128 170 C-128.556875 169.57589844 -129.11375 
169.15179687 -129.6875 168.71484375 C-132.14076912 166.82930752 
-134.57282059 164.91898872 -137 163 C-137.680625 162.47148438 -138.36125 
161.94296875 -139.0625 161.3984375 C-149.73320049 152.66395283 
-155.75564409 141.44989754 -161 129 C-161.35835937 128.23558594 
-161.71671875 127.47117187 -162.0859375 126.68359375 C-169.11160701 
106.05694864 -167.5314833 81.53606664 -158.58203125 61.88671875 
C-147.33768422 40.09137584 -127.40506106 24.42715398 -104.3203125 16.78125 
C-78.29606935 9.07851418 -48.69235458 11.08305998 -24 22 C-22.33626379 
22.67394662 -20.67075006 23.3436339 -19 24 C-18.76667969 23.44699219 
-18.53335937 22.89398437 -18.29296875 22.32421875 C-16.66364465 
19.39537331 -14.6105541 17.25132312 -12.3125 14.8125 C-7.91882966 
10.06810126 -3.86400252 5.18185768 0 0 Z " fill="#010101" 
transform="translate(1328,524)"/>
<path d="M0 0 C29.80812832 -1.19401364 58.51124411 6.17539492 81.09716797 
26.34863281 C101.79266021 45.72769581 113.54683077 74.06162691 
114.95404053 102.23857117 C115.00974758 104.37857727 115.03780105 
106.51653509 115.05029297 108.65722656 C115.05599304 109.44525162 
115.06169312 110.23327667 115.06756592 111.04518127 C115.07694461 
112.70483083 115.08352121 114.36449841 115.08740234 116.02416992 
C115.09702444 118.49921379 115.12808153 120.97339521 115.15966797 
123.44824219 C115.25596052 137.8288859 113.71496806 152.01308837 
109.15966797 165.72363281 C108.90693115 166.50085693 108.65419434 
167.27808105 108.39379883 168.07885742 C99.68780445 193.7886244 
82.39587932 215.96353239 57.84716797 228.09863281 C57.22302002 228.4339502 
56.59887207 228.76926758 55.95581055 229.11474609 C53.83658872 
230.10356906 51.98898411 230.59252099 49.69873047 231.03222656 
C43.91069141 232.24408984 38.38090038 234.10906299 32.77685547 
235.97558594 C31.98279297 236.23404297 31.18873047 236.4925 30.37060547 
236.75878906 C29.6685498 236.99218994 28.96649414 237.22559082 28.24316406 
237.46606445 C10.03096972 242.27427676 -14.34177834 240.65926082 
-32.15283203 235.09863281 C-32.84183594 234.88964355 -33.53083984 
234.6806543 -34.24072266 234.46533203 C-59.09913002 226.68979927 
-78.94186811 209.77333754 -91.24267578 186.80566406 C-91.88341627 
185.5720676 -92.52013619 184.33637454 -93.15283203 183.09863281 
C-93.46494629 182.4945459 -93.77706055 181.89045898 -94.09863281 
181.26806641 C-110.06287458 149.69879919 -110.74893658 107.35571343 
-100.15283203 74.09863281 C-94.90014071 58.69395091 -87.06135071 
45.22982259 -76.15283203 33.09863281 C-75.46833984 32.33164062 
-74.78384766 31.56464844 -74.07861328 30.77441406 C-63.8905223 19.98370032 
-51.77961108 12.71930645 -38.15283203 7.09863281 C-37.51547119 6.83501953 
-36.87811035 6.57140625 -36.22143555 6.29980469 C-31.48766216 4.42228899 
-26.86005614 3.28815626 -21.84033203 2.47363281 C-20.71643066 2.28643677 
-20.71643066 2.28643677 -19.56982422 2.09545898 C-13.03517161 1.0338245 
-6.61621106 0.30312421 0 0 Z " fill="#010101" 
transform="translate(1493.15283203125,536.9013671875)"/>
<path d="M0 0 C18.81 0 37.62 0 57 0 C59.248125 6.55875 61.49625 13.1175 
63.8125 19.875 C64.51608643 21.92444824 65.21967285 23.97389648 
65.94458008 26.08544922 C66.51137991 27.74181085 67.07803933 29.39822053 
67.64453125 31.0546875 C67.93146851 31.8887915 68.21840576 32.72289551 
68.51403809 33.58227539 C69.91998372 37.69896083 71.25091863 41.81749371 
72.4597168 45.99658203 C73.42433827 49.26169705 74.52009914 52.39299274 
75.82128906 55.53857422 C78.88874488 63.01297908 81.32106608 70.7170677 
83.859375 78.3828125 C84.41390054 80.05012638 84.96869424 81.71735109 
85.52374268 83.38449097 C86.97306656 87.74004291 88.41878056 92.09678447 
89.8637085 96.45379639 C91.34312962 100.91263981 92.82601357 105.3703312 
94.30859375 109.828125 C97.20909132 118.55096857 100.10577098 127.2750747 
103 136 C108.96319676 122.20548252 114.77093184 108.35625986 120.4375 
94.4375 C121.21147849 92.54036785 121.98565313 90.64331572 122.76000977 
88.74633789 C124.36547851 84.81296105 125.97011667 80.87924687 
127.57421875 76.9453125 C129.97226625 71.06594827 132.375885 65.18887374 
134.78125 59.3125 C135.17019943 58.3622847 135.55914886 57.4120694 
135.95988464 56.43305969 C136.73621087 54.5365537 137.51255248 52.64005401 
138.28890991 50.74356079 C145.20961229 33.83595225 152.11576115 
16.92249021 159 0 C165.6 0 172.2 0 179 0 C185.51944125 14.58403074 
191.81338573 29.24517696 197.93331909 44.00021362 C203.44661555 
57.29256665 209.02016738 70.55848625 214.625 83.8125 C216.22804185 
87.60409175 217.83091731 91.39575378 219.43359375 95.1875 C219.8206398 
96.10318253 220.20768585 97.01886505 220.60646057 97.96229553 
C226.09953497 110.96286436 231.55260592 123.98023605 237 137 C243.24333931 
120.36234443 249.30251706 103.66060477 255.3125 86.9375 C261.90516574 
68.59527366 268.51008901 50.25758861 275.14120483 31.92922974 
C276.08730846 29.31411299 277.0327808 26.69876939 277.97769165 24.08322144 
C279.29752276 20.42997136 280.61934378 16.77744322 281.94140625 13.125 
C282.53698334 11.47553123 282.53698334 11.47553123 283.14459229 9.79273987 
C283.5075238 8.79121384 283.87045532 7.78968781 284.24438477 6.7578125 
C284.56093521 5.8827002 284.87748566 5.00758789 285.20362854 4.10595703 
C286 2 286 2 287 0 C304.49 0 321.98 0 340 0 C339.1355419 4.32229052 
337.92538929 8.15136298 336.359375 12.234375 C336.08526794 12.95929138 
335.81116089 13.68420776 335.52874756 14.43109131 C334.92591971 16.0248839 
334.32145455 17.61805792 333.71557617 19.21069336 C332.01465441 
23.68383804 330.32771816 28.16224999 328.640625 32.640625 C328.27388672 
33.61362549 327.90714844 34.58662598 327.52929688 35.58911133 
C322.78392721 48.20057906 318.14761272 60.85226934 313.5 73.5 
C307.52653607 89.74716604 301.53469346 105.98632554 295.4375 122.1875 
C287.02002885 144.55440939 278.73655941 166.97077114 270.44677734 
189.38525391 C267.82653878 196.46957304 265.2047436 203.5533151 
262.58203125 210.63671875 C262.16765305 211.75625443 261.75327484 
212.8757901 261.32633972 214.0292511 C260.55881595 216.10188608 
259.79047381 218.17421828 259.02114868 220.2461853 C258.38400125 
221.9644326 257.74955973 223.68368865 257.11923218 225.40444946 
C255.89587425 228.72414521 254.58633346 231.82733308 253 235 C246.4 235 
239.8 235 233 235 C224.19952194 216.13230841 215.69020775 197.14585408 
207.26269531 178.109375 C203.56877629 169.76635973 199.86684713 
161.42689989 196.16320801 153.0881958 C195.30741428 151.16117994 
194.45186242 149.23405665 193.59655762 147.30682373 C189.30168003 
137.63023612 184.99576949 127.95936527 180.6171875 118.3203125 
C180.28254486 117.58305435 179.94790222 116.8457962 179.6031189 
116.0861969 C178.06118683 112.69117055 176.5146987 109.29834054 
174.96044922 105.90893555 C174.43209473 104.74918213 173.90374023 
103.58942871 173.359375 102.39453125 C172.90014648 101.39268799 
172.44091797 100.39084473 171.96777344 99.35864258 C171 97 171 97 171 95 
C170.34 95 169.68 95 169 95 C168.82771378 95.54962402 168.65542755 
96.09924805 168.47792053 96.66552734 C166.7066667 102.16428412 
164.60572326 107.38430781 162.18359375 112.625 C161.81519379 113.43271347 
161.44679382 114.24042694 161.06723022 115.07261658 C160.2744895 
116.81022568 159.47985901 118.54697366 158.6835022 120.28292847 
C156.53099293 124.97675779 154.39401487 129.67763773 152.2578125 
134.37890625 C151.59894798 135.82832359 151.59894798 135.82832359 
150.92677307 137.30702209 C146.84737799 146.29991336 142.87438208 
155.33771313 138.92523193 164.38839722 C133.12615217 177.67322343 
127.30511911 190.94927076 121.3387146 204.15994263 C120.66714758 
205.65040322 119.99905692 207.14243627 119.33486938 208.63619995 
C115.94300482 216.2558435 112.45052468 223.38302308 107.37182617 
230.06665039 C105.81994894 232.05500908 105.81994894 232.05500908 105 235 
C99.06 235 93.12 235 87 235 C77.80685146 211.00503891 68.90408549 
186.90333953 59.99427795 162.80206299 C56.95244108 154.5739118 53.90723474 
146.34701579 50.859375 138.12109375 C50.44081741 136.99140671 50.02225983 
135.86171967 49.59101868 134.69779968 C48.7503579 132.42890993 47.90968514 
130.16002461 47.06900024 127.8911438 C41.90476524 113.95349151 36.74110791 
100.01565059 31.59765625 86.0703125 C30.53720542 83.19575625 29.47669288 
80.32122279 28.41610718 77.44671631 C27.72691195 75.57878815 27.03780344 
73.710828 26.3487854 71.84283447 C22.25677961 60.75288624 18.13517346 
49.67453189 13.9765625 38.609375 C13.55925873 37.49875702 13.14195496 
36.38813904 12.71200562 35.24386597 C10.68582968 29.85341749 8.65646136 
24.46419787 6.62255859 19.07666016 C5.89416849 17.14226663 5.16581373 
15.20785979 4.4375 13.2734375 C3.9356871 11.94877472 3.9356871 11.94877472 
3.42373657 10.59735107 C3.11761444 9.78324768 2.81149231 8.96914429 
2.49609375 8.13037109 C2.22982178 7.42528412 1.9635498 6.72019714 
1.68920898 5.9937439 C1.01103143 4.03191171 0.5034417 2.01376681 0 0 Z " 
fill="#010101" transform="translate(1625,541)"/>
<path d="M0 0 C3.51478709 2.83584661 6.79540265 5.82038976 10 9 C10.886875 
9.845625 11.77375 10.69125 12.6875 11.5625 C13.450625 12.366875 14.21375 
13.17125 15 14 C15.51820313 14.53496094 16.03640625 15.06992187 16.5703125 
15.62109375 C26.83767786 26.69419406 33.39659272 40.24071696 37.75 54.5625 
C37.96100342 55.24666992 38.17200684 55.93083984 38.3894043 56.63574219 
C43.91658649 75.7325309 41.74250447 97.02998213 37 116 C-17.45 116 -71.9 
116 -128 116 C-124.24607776 134.7988462 -124.24607776 134.7988462 
-115.234375 151.1953125 C-114 153 -114 153 -113 156 C-111.68947596 
156.71045688 -110.35159575 157.37118273 -109 158 C-107.626373 159.07986122 
-106.2734232 160.18632923 -104.9375 161.3125 C-87.59319726 175.02792885 
-63.57497966 174.77158466 -42.5625 172.375 C-31.48434468 170.45943022 
-20.97468057 166.50401097 -12.11328125 159.515625 C-9.8317889 157.87936062 
-7.61276085 156.99887795 -5 156 C-4.57178955 156.86165771 -4.1435791 
157.72331543 -3.70239258 158.61108398 C-2.09235802 161.84944019 
-0.47955348 165.08641051 1.1340332 168.32299805 C1.82813295 169.71618412 
2.52151025 171.10973039 3.21411133 172.50366211 C8.4581031 183.07002085 
8.4581031 183.07002085 14.1809082 193.38305664 C15 195 15 195 15 197 
C11.55387204 199.66547448 7.75104744 201.79402686 4 204 C3.0203125 
204.59554687 2.040625 205.19109375 1.03125 205.8046875 C-29.46543186 
222.78922566 -76.11062992 223.75411671 -109.32128906 214.79150391 
C-120.46535262 211.49866267 -130.55069293 206.81514043 -140 200 
C-140.76441406 199.45730469 -141.52882813 198.91460938 -142.31640625 
198.35546875 C-165.08219378 181.44939697 -178.48657511 155.81059228 
-182.71777344 128.04248047 C-185.32378173 109.18273533 -185.88332707 
88.50634251 -181 70 C-180.70996094 68.74832031 -180.41992188 67.49664063 
-180.12109375 66.20703125 C-172.49130726 34.88979045 -152.31853031 
10.56403549 -125.07373047 -6.07910156 C-117.37587267 -10.65043824 
-109.59111705 -13.50673993 -101 -16 C-99.92621094 -16.33257813 
-98.85242188 -16.66515625 -97.74609375 -17.0078125 C-65.52934788 
-25.54071495 -27.20875436 -19.75981376 0 0 Z " fill="#010101" 
transform="translate(498,557)"/>
<path d="M0 0 C1.19625 0.17144531 2.3925 0.34289062 3.625 0.51953125 
C23.788322 3.8302462 42.7128747 13.29683152 55 30 C60.89909904 39.06055283 
64.61598586 48.44833202 67 59 C67.17515137 59.75974121 67.35030273 
60.51948242 67.53076172 61.30224609 C68.10364927 63.82245097 68.65048541 
66.34691915 69.1875 68.875 C69.35475586 69.64030029 69.52201172 
70.40560059 69.69433594 71.1940918 C72.31384233 84.24976567 72.14601677 
97.81022739 72.22979546 111.07944107 C72.24659559 113.64700823 72.26983093 
116.21445076 72.29469299 118.7819519 C72.36445638 126.06892403 72.42550022 
133.35594081 72.47680664 140.64306641 C72.50888179 145.13553211 
72.55020083 149.62783916 72.59700203 154.12017441 C72.61282184 
155.81113688 72.62523326 157.50213535 72.63390923 159.19314957 
C72.72994236 177.62316234 73.240387 199.77096763 85.4296875 214.7578125 
C86.57316643 215.88775913 87.78182367 216.95101483 89 218 C89.66 218.99 
90.32 219.98 91 221 C85.86696804 228.36269272 80.90223668 233.8257918 
72.0625 236.3125 C61.31368746 238.19075271 50.37235296 238.64976658 
40.72265625 233.03515625 C33.2408296 227.44257134 27.57759815 220.61875918 
24 212 C23.360625 212.680625 22.72125 213.36125 22.0625 214.0625 
C4.18862578 231.68812597 -18.81988658 237.26489883 -43.14477539 
237.17626953 C-64.72756442 236.9539957 -85.42773038 231.80590932 -101.3125 
216.3125 C-116.27289593 200.92569087 -119.74404367 183.390221 
-119.52148438 162.60742188 C-118.88086662 140.30227641 -111.09988388 
122.52522135 -94.9375 106.9375 C-72.04867896 86.90585689 -41.30985673 
80.583976 -11.63012695 80.73925781 C-9.17309339 80.75006336 -6.7167784 
80.73925141 -4.25976562 80.7265625 C3.38178529 80.72077279 10.60509226 
80.83563676 18 83 C17.02736613 72.60287935 14.77750463 62.13346215 6.9375 
54.625 C-5.37464697 45.43845325 -19.16243256 43.61492607 -34.0625 43.6875 
C-35.83379272 43.69378418 -35.83379272 43.69378418 -37.64086914 
43.70019531 C-51.81570684 43.88163941 -64.68249195 46.0160235 -78 51 
C-79.99787954 51.67299463 -81.9973806 52.34124362 -84 53 C-86.75879402 
44.38091061 -89.30124497 35.69386596 -91.8125 27 C-92.13871338 25.90179932 
-92.46492676 24.80359863 -92.80102539 23.67211914 C-93.10000732 
22.62531982 -93.39898926 21.57852051 -93.70703125 20.5 C-93.9800708 
19.5615625 -94.25311035 18.623125 -94.53442383 17.65625 C-95.0537723 
14.69321307 -95.01324197 12.83391589 -94 10 C-92.38037109 8.83740234 
-92.38037109 8.83740234 -90.2734375 8.0859375 C-89.10808472 7.65897583 
-89.10808472 7.65897583 -87.91918945 7.22338867 C-87.07960693 6.94342041 
-86.24002441 6.66345215 -85.375 6.375 C-84.51414795 6.07505127 -83.6532959 
5.77510254 -82.76635742 5.46606445 C-75.26319562 2.92889422 -67.83676719 
1.1991605 -60 0 C-58.845 -0.20367188 -57.69 -0.40734375 -56.5 -0.6171875 
C-38.03787802 -3.47255806 -18.39356423 -3.22297945 0 0 Z " fill="#010101" 
transform="translate(1050,539)"/>
<path d="M0 0 C85.8 0 171.6 0 260 0 C260 16.17 260 32.34 260 49 C225.35 49 
190.7 49 155 49 C155 136.78 155 224.56 155 315 C136.85 315 118.7 315 100 
315 C100 227.22 100 139.44 100 49 C67 49 34 49 0 49 C0 32.83 0 16.66 0 0 Z 
" fill="#000000" transform="translate(84,457)"/>
<path d="M0 0 C-1.50382434 3.89969407 -3.22770358 7.64782854 -5.046875 
11.41015625 C-5.34055969 12.01830673 -5.63424438 12.62645721 -5.93682861 
13.2530365 C-6.55800109 14.53846078 -7.1799855 15.82349299 -7.80273438 
17.1081543 C-8.73496503 19.03148069 -9.66458338 20.95605119 -10.59375 
22.88085938 C-14.33403169 30.61881929 -18.13387341 38.32397166 -22 46 
C-25.32417374 45.22537118 -28.11243401 44.05787841 -31.1875 42.5625 
C-42.52478407 37.40105225 -55.87298986 35.60887009 -67.9375 39.5625 
C-73.33340862 41.86000832 -77.64440935 45.11730205 -82 49 C-82.60457031 
49.50015625 -83.20914063 50.0003125 -83.83203125 50.515625 C-93.98273071 
59.58938795 -99.73482493 73.65714416 -101 87 C-101.16839011 91.54813917 
-101.18492203 96.09532704 -101.20532227 100.64624023 C-101.21491347 
102.02656845 -101.22492427 103.4068938 -101.23532104 104.78721619 
C-101.26224162 108.51806925 -101.28332031 112.2489348 -101.30332303 
115.9798305 C-101.3252623 119.88493773 -101.35261197 123.79000704 
-101.37937927 127.69508362 C-101.42919917 135.08260048 -101.47417749 
142.47013851 -101.51740164 149.85769659 C-101.56686576 158.2712668 
-101.62174973 166.68479894 -101.67708123 175.09833229 C-101.79073687 
192.3988543 -101.89689598 209.69941139 -102 227 C-119.82 227 -137.64 227 
-156 227 C-156 150.77 -156 74.54 -156 -4 C-138.18 -4 -120.36 -4 -102 -4 
C-101.67 2.6 -101.34 9.2 -101 16 C-99.906875 14.824375 -98.81375 13.64875 
-97.6875 12.4375 C-72.65417302 -12.50768146 -30.89494212 -13.80992996 0 0 
Z " fill="#010101" transform="translate(927,545)"/>
<path d="M0 0 C1.01512102 2.38403933 1.130986 3.58742332 0.34320068 
6.06877136 C-0.02303406 6.8029982 -0.3892688 7.53722504 -0.76660156 
8.29370117 C-1.17742981 9.13104294 -1.58825806 9.9683847 -2.01153564 
10.83110046 C-2.69418488 12.17347527 -2.69418488 12.17347527 -3.390625 
13.54296875 C-3.85104187 14.46717117 -4.31145874 15.3913736 -4.78582764 
16.34358215 C-5.76203617 18.2957002 -6.74423443 20.24483266 -7.73193359 
22.19116211 C-9.24551164 25.17864093 -10.73527573 28.17714222 -12.22265625 
31.17773438 C-13.17307671 33.07101718 -14.1248541 34.96361954 -15.078125 
36.85546875 C-15.52512756 37.75645798 -15.97213013 38.6574472 -16.43267822 
39.58573914 C-16.85611511 40.41362442 -17.279552 41.2415097 -17.71582031 
42.09448242 C-18.08523743 42.82632248 -18.45465454 43.55816254 
-18.83526611 44.31217957 C-20 46 -20 46 -23 47 C-25.34765625 46.109375 
-25.34765625 46.109375 -28.0625 44.75 C-40.10926741 39.1040607 
-52.74362363 36.28725332 -65.8125 40.5 C-78.38491913 45.86927373 
-87.06205009 54.77311279 -93.25 66.6875 C-93.74439575 67.62142578 
-93.74439575 67.62142578 -94.2487793 68.57421875 C-99.51466502 79.26495016 
-100.44572357 90.58371277 -100.43237305 102.32739258 C-100.44141639 
103.70861166 -100.45174978 105.0898228 -100.46325684 106.47102356 
C-100.49055169 110.17676908 -100.50007334 113.88236123 -100.50611091 
117.58819413 C-100.51556721 121.47728809 -100.54177572 125.36627065 
-100.56611633 129.2552948 C-100.60958721 136.6001111 -100.63825282 
143.94490554 -100.66143972 151.28981084 C-100.68859622 159.66002997 
-100.73250074 168.03013597 -100.77772844 176.40027392 C-100.87029633 
193.60013685 -100.93989377 210.79998834 -101 228 C-118.49 228 -135.98 228 
-154 228 C-154 152.1 -154 76.2 -154 -2 C-136.51 -2 -119.02 -2 -101 -2 
C-100.505 7.405 -100.505 7.405 -100 17 C-98.47375 15.515 -96.9475 14.03 
-95.375 12.5 C-72.0750517 -9.23638505 -28.42551803 -15.26711799 0 0 Z " 
fill="#000000" transform="translate(737,544)"/>
<path d="M0 0 C12.00335308 9.18692387 17.86958753 22.09514006 21.09765625 
36.60546875 C21.36147095 37.59135986 21.36147095 37.59135986 21.63061523 
38.59716797 C23.56018479 46.56082499 23.43475843 54.57194648 23.41333008 
62.71630859 C23.41018896 65.2045557 23.43362575 67.69158821 23.45898438 
70.1796875 C23.55084842 92.95038126 18.67216092 113.22780303 2.91015625 
130.35546875 C-8.04003275 140.91324483 -21.05758149 143.02556589 
-35.60253906 142.96899414 C-48.77843611 142.72153364 -58.42950731 
138.54453116 -68.08984375 129.57421875 C-83.47856464 113.48601055 
-86.13434103 90.45445352 -86.15234375 69.23046875 C-86.15301849 
68.51748627 -86.15369324 67.80450378 -86.15438843 67.06991577 
C-86.11967896 43.9751427 -82.46155718 22.30877772 -66.171875 4.7109375 
C-48.63963277 -11.55391373 -19.86792169 -13.43323587 0 0 Z " 
fill="#FDFDFD" transform="translate(1528.90234375,589.39453125)"/>
<path d="M0 0 C1.051875 0.598125 2.10375 1.19625 3.1875 1.8125 
C12.74099538 9.24299641 18.17071204 18.12477761 21 30 C22.19248445 
44.04653757 19.96368264 59.00741774 10.8125 70.1875 C3.59869957 
77.90996584 -4.2329395 81.83206916 -14.8046875 82.3359375 C-16.49458148 
82.36560211 -18.18484873 82.37821505 -19.875 82.375 C-20.75687988 
82.37338867 -21.63875977 82.37177734 -22.54736328 82.37011719 
C-29.05075704 82.24743434 -34.33565533 81.37524868 -40 78 C-41.051875 
77.401875 -42.10375 76.80375 -43.1875 76.1875 C-53.96940144 67.80157666 
-59.29922389 57.57809691 -61 44 C-61.81955184 31.81420467 -60.79947468 
20.57348705 -52.7578125 10.875 C-39.48785601 -3.27962025 -18.08670668 
-10.58108953 0 0 Z " fill="#FDFDFD" transform="translate(1278,585)"/>
<path d="M0 0 C1.87461914 -0.01160156 1.87461914 -0.01160156 3.78710938 
-0.0234375 C10.91071844 -0.00846407 17.52530559 0.48603933 24.4375 2.25 
C24.51308065 6.12360504 24.5667563 9.99691006 24.60229492 13.87109375 
C24.62435261 15.81786238 24.66251918 17.76442765 24.70117188 19.7109375 
C24.81385163 34.43442588 22.55750596 49.82876445 12.25 61.125 C1.75768422 
70.57732853 -10.0338053 72.61362298 -23.6875 72.5 C-25.09322266 
72.51160156 -25.09322266 72.51160156 -26.52734375 72.5234375 C-35.71985718 
72.49772418 -45.23442269 71.08495954 -52.29296875 64.6796875 C-58.65057941 
57.67846687 -60.10541353 51.17106649 -60 41.9375 C-59.99097656 41.00196289 
-59.98195313 40.06642578 -59.97265625 39.10253906 C-59.70972795 
28.65479105 -57.09946117 21.90005901 -49.8203125 14.28515625 C-36.15859863 
1.97070482 -17.62250346 -0.10939992 0 0 Z " fill="#FCFCFC" 
transform="translate(1044.5625,660.75)"/>
<path d="M0 0 C3.58592537 1.52199335 5.8793792 3.63255749 8.61907959 
6.37857056 C9.54172104 7.29846268 10.46436249 8.2183548 11.41496277 
9.16612244 C12.43005519 10.18829263 13.44505136 11.21055842 14.45996094 
12.23291016 C15.53399927 13.30751273 16.60847838 14.3816749 17.68336487 
15.45542908 C20.5986874 18.3701776 23.50780072 21.29105311 26.41584682 
24.21305895 C29.45653627 27.26624767 32.50288731 30.31377666 35.54864502 
33.36190796 C41.31470672 39.13418678 47.07565104 44.91154509 52.83477902 
50.69074094 C59.39186433 57.27017801 65.95462699 63.84393953 72.51787519 
70.41722798 C86.01824844 83.93850849 99.51146743 97.46690799 113 111 
C116.55089918 109.48722127 118.82808345 107.41879899 121.54315186 
104.69735718 C122.448965 103.79429337 123.35477814 102.89122955 
124.28804016 101.96080017 C125.28424222 100.95752037 126.28034802 
99.95414497 127.27636719 98.95068359 C128.33070133 97.8957852 129.38547628 
96.84132723 130.44065857 95.78727722 C133.3022641 92.92624565 136.15766007 
90.0590883 139.01198864 87.19079924 C141.9966232 84.19366458 144.98692016 
81.20219042 147.97662354 78.21011353 C153.63643763 72.54408256 
159.29113403 66.8729725 164.94401383 61.20002425 C171.38018203 54.74150354 
177.82202826 48.28865902 184.26435995 41.83628726 C197.51590543 
28.56383508 210.76029626 15.28426419 224 2 C227.78496138 3.51398455 
228.0072198 4.0144396 230 8 C194.03 43.97 158.06 79.94 121 117 
C122.89139978 120.78279956 124.43769002 122.6849597 127.37857056 
125.61907959 C128.29846268 126.54172104 129.2183548 127.46436249 
130.16612244 128.41496277 C131.18829263 129.43005519 132.21055842 
130.44505136 133.23291016 131.45996094 C134.30751273 132.53399927 
135.3816749 133.60847838 136.45542908 134.68336487 C139.3701776 
137.5986874 142.29105311 140.50780072 145.21305895 143.41584682 
C148.26624767 146.45653627 151.31377666 149.50288731 154.36190796 
152.54864502 C160.13418678 158.31470672 165.91154509 164.07565104 
171.69074094 169.83477902 C178.27017801 176.39186433 184.84393953 
182.95462699 191.41722798 189.51787519 C204.93850849 203.01824844 
218.46690799 216.51146743 232 230 C230.35 231.98 228.7 233.96 227 236 
C220.83584687 230.90271127 215.20806479 225.3433222 209.56665039 
219.68017578 C208.5313633 218.64460615 207.49585504 217.6092576 
206.46014404 216.57411194 C203.66708248 213.78133572 200.87710156 
210.9855006 198.08768773 208.18908167 C195.16535761 205.26047421 
192.24017026 202.33472341 189.31529236 199.40866089 C183.78508257 
193.87535066 178.25742552 188.33949764 172.73069423 182.80271327 
C166.43517638 176.49599423 160.13679792 170.19213529 153.83818448 
163.88850808 C140.88895052 150.92883889 127.94329077 137.96560473 115 125 
C111.43208709 126.51644723 109.15458464 128.60306346 106.43234253 
131.34060669 C105.52100555 132.25208466 104.60966858 133.16356262 
103.67071533 134.10266113 C102.66824963 135.11539406 101.66587221 
136.12821438 100.66357422 137.14111328 C99.60264856 138.20587793 
98.54126615 139.27018765 97.47946167 140.33407593 C95.19577818 142.6240782 
92.91523825 144.91715007 90.63705063 147.21261978 C87.03752234 
150.83917792 83.43039116 154.45810853 79.822052 158.07589722 C72.16710996 
165.75303965 64.52064447 173.43859979 56.875 181.125 C48.61455141 
189.4294527 40.35268656 197.73246536 32.08105481 206.02578151 C28.49109431 
209.62573288 24.9060726 213.23051139 21.32469535 216.83900094 C19.1010424 
219.0775219 16.87329929 221.31193708 14.64439774 223.54523087 C13.60820319 
224.58518452 12.57374641 225.62687286 11.54112244 226.67037201 
C10.13656635 228.08925794 8.72531949 229.50151154 7.31369019 230.9133606 
C6.12960477 232.10410785 6.12960477 232.10410785 4.92159843 233.3189106 C3 
235 3 235 1 235 C-0.32 233.02 -1.64 231.04 -3 229 C33.3 192.7 69.6 156.4 
107 119 C105.10860022 115.21720044 103.56230998 113.3150403 100.62142944 
110.38092041 C99.70153732 109.45827896 98.7816452 108.53563751 97.83387756 
107.58503723 C96.81170737 106.56994481 95.78944158 105.55494864 
94.76708984 104.54003906 C93.69248727 103.46600073 92.6183251 102.39152162 
91.54457092 101.31663513 C88.6298224 98.4013126 85.70894689 95.49219928 
82.78694105 92.58415318 C79.73375233 89.54346373 76.68622334 86.49711269 
73.63809204 83.45135498 C67.86581322 77.68529328 62.08845491 71.92434896 
56.30925906 66.16522098 C49.72982199 59.60813567 43.15606047 53.04537301 
36.58277202 46.48212481 C23.06149151 32.98175156 9.53309201 19.48853257 -4 
6 C-3.34 4.68 -2.68 3.36 -2 2 C-1.34 2 -0.68 2 0 2 C0 1.34 0 0.68 0 0 Z " 
fill="#070707" transform="translate(902,131)"/>
<path d="M0 0 C0.79744629 0.14002441 1.59489258 0.28004883 2.41650391 
0.42431641 C48.05207271 8.66799541 88.3807732 35.12237164 116 72 
C116.63808594 72.84304687 117.27617188 73.68609375 117.93359375 74.5546875 
C133.81586579 96.34237709 144.67125785 122.44107233 149 149 C149.16628906 
149.8362793 149.33257813 150.67255859 149.50390625 151.53417969 
C151.11632519 160.05984482 151.39794237 168.47633515 151.375 177.125 
C151.37478851 177.86411621 151.37457703 178.60323242 151.37435913 
179.36474609 C151.24455695 225.16338433 135.45623624 269.27867234 103.9375 
302.88671875 C101.92674538 305.02829188 101.92674538 305.02829188 
99.96484375 307.57421875 C97.67712522 310.39861877 95.19307106 
312.59028498 92.4296875 314.93359375 C90.68240922 316.41962302 88.96129077 
317.93661388 87.2578125 319.47265625 C62.46627193 341.59913659 29.7946954 
356.20165623 -3 361 C-4.58748047 361.30357422 -4.58748047 361.30357422 
-6.20703125 361.61328125 C-37.60895169 367.19500109 -72.84264956 
361.45436438 -102 349 C-102.66918457 348.71817871 -103.33836914 
348.43635742 -104.02783203 348.14599609 C-121.43047167 340.71118119 
-136.96986652 330.66133997 -151 318 C-152.41563293 316.79045575 
-153.83216551 315.58196282 -155.25 314.375 C-186.06842788 287.0308834 
-205.6062909 248.48708125 -212 208 C-212.20753906 206.70707031 
-212.41507813 205.41414062 -212.62890625 204.08203125 C-219.11508138 
159.58042192 -207.4907964 111.07671244 -180.66259766 74.77490234 
C-179.45221391 73.17528244 -178.22641614 71.58736137 -177 70 
C-176.34128906 69.11828125 -175.68257812 68.2365625 -175.00390625 
67.328125 C-146.4929503 30.64736296 -101.92060823 4.40021193 -55.6171875 
-1.53515625 C-37.56189815 -3.32713525 -17.83892496 -3.35558725 0 0 Z M-156 
52 C-156.77085937 52.69738281 -157.54171875 53.39476562 -158.3359375 
54.11328125 C-186.5271692 80.98125106 -208.2018497 124.33172579 
-209.16113281 163.47802734 C-209.1810223 165.09726908 -209.19474193 
166.71659532 -209.203125 168.3359375 C-209.20882507 169.21416168 
-209.21452515 170.09238586 -209.22039795 170.9972229 C-209.22979788 
172.85116391 -209.23636187 174.70512124 -209.24023438 176.55908203 
C-209.24985321 179.33267219 -209.28088851 182.10549214 -209.3125 
184.87890625 C-209.41168 201.18064051 -207.32906716 216.3082642 -202.375 
231.875 C-202.02872559 232.97505371 -201.68245117 234.07510742 
-201.32568359 235.20849609 C-192.64208167 262.02081684 -178.46123243 
284.66219669 -159 305 C-158.113125 305.93972656 -157.22625 306.87945312 
-156.3125 307.84765625 C-125.45080213 339.74106786 -80.03907689 
358.55527773 -35.84228516 359.30224609 C-25.1017155 359.33786144 
-14.60235492 358.70624943 -4 357 C-2.78828125 356.80535156 -1.5765625 
356.61070312 -0.328125 356.41015625 C16.95649143 353.27592859 33.22613608 
347.66010365 49 340 C49.63711914 339.69900391 50.27423828 339.39800781 
50.93066406 339.08789062 C91.04675565 319.98900519 121.9821546 
282.32714558 137 241 C152.41059702 194.96410636 151.04153732 145.7815747 
129.52734375 101.90234375 C124.1748529 91.24721508 118.32659588 
81.40266588 111 72 C110.33097656 71.10925781 109.66195313 70.21851563 
108.97265625 69.30078125 C80.81022104 33.13826847 38.68584939 9.35533173 
-6.61767578 3.02978516 C-62.9946282 -3.73544913 -114.40350089 14.2283183 
-156 52 Z " fill="#111111" transform="translate(1047,69)"/>
<path d="M0 0 C8.81262162 7.33720533 14.50553556 16.94401725 17.27734375 
28.03125 C17.77234375 33.97125 17.77234375 33.97125 18.27734375 40.03125 
C-19.01265625 40.03125 -56.30265625 40.03125 -94.72265625 40.03125 
C-92.79627203 28.47294465 -88.64803373 18.47494656 -81.72265625 9.03125 
C-81.18898438 8.30164063 -80.6553125 7.57203125 -80.10546875 6.8203125 
C-61.54320994 -16.36030736 -22.78599964 -16.47653345 0 0 Z " 
fill="#FBFBFB" transform="translate(466.72265625,592.96875)"/>
<path d="M0 0 C3.46440352 3.46440352 5.83083777 6.68713941 8.3125 10.8125 
C12.79177737 18.12474991 17.43046262 25.32419905 22.125 32.5 C22.80087158 
33.53358643 23.47674316 34.56717285 24.1730957 35.63208008 C25.78082018 
38.08887176 27.38971776 40.54488431 29 43 C24.19975991 46.79755142 
18.78882012 49.37800533 13.375 52.1875 C12.3128125 52.74630859 11.250625 
53.30511719 10.15625 53.88085938 C9.14304687 54.40873047 8.12984375 
54.93660156 7.0859375 55.48046875 C6.1582959 55.96410889 5.2306543 
56.44774902 4.27490234 56.94604492 C2 58 2 58 0 58 C0 38.86 0 19.72 0 0 Z 
" fill="#030303" transform="translate(1016,327)"/>
<path d="M0 0 C0.33 0 0.66 0 1 0 C1 18.81 1 37.62 1 57 C-18 48 -18 48 -27 
43 C-25.65658587 39.34718524 -24.01333975 36.2557268 -21.875 33.0078125 
C-21.25512207 32.06172119 -20.63524414 31.11562988 -19.99658203 
30.14086914 C-19.33770996 29.14563232 -18.67883789 28.15039551 -18 27.125 
C-17.32952637 26.10591553 -16.65905273 25.08683105 -15.96826172 
24.03686523 C-14.61735077 21.98558381 -13.26434761 19.9356786 -11.90917969 
17.88720703 C-10.20685128 15.31281628 -8.5120792 12.73368048 -6.8203125 
10.15234375 C-5.9223348 8.78875959 -5.02393372 7.4254541 -4.125 6.0625 
C-3.71507812 5.43682129 -3.30515625 4.81114258 -2.8828125 4.16650391 
C-1.94843384 2.75966381 -0.97854444 1.37648585 0 0 Z " fill="#030303" 
transform="translate(1014,328)"/>
<path d="M0 0 C0.66 0 1.32 0 2 0 C2.268125 0.69222656 2.53625 1.38445312 
2.8125 2.09765625 C4.70059305 6.81167805 6.62540983 11.42405214 9.11328125 
15.85546875 C9.47615234 16.50314209 9.83902344 17.15081543 10.21289062 
17.81811523 C10.9297419 19.0775389 11.6609349 20.32893918 12.40820312 
21.57055664 C15.14656434 26.38436965 15.42070281 29.62061341 15 35 
C13.38480851 40.14842286 10.67555295 42.50229696 6.1171875 45.08203125 
C2.83985407 46.5030153 0.50708398 46.584514 -3 46 C-7.77675106 43.56479358 
-10.63596434 40.81899576 -13 36 C-14.42468975 28.22723691 -11.24527273 
22.42940319 -7.625 15.75 C-6.61576674 13.8288707 -5.60790554 11.90701986 
-4.6015625 9.984375 C-4.15119629 9.14616211 -3.70083008 8.30794922 
-3.23681641 7.44433594 C-2.00389956 5.00770675 -0.97546023 2.54927857 0 0 
Z " fill="#050505" transform="translate(1090,242)"/>
<path d="M0 0 C3.01250425 3.63383325 4.94345372 7.66139954 7 11.875 
C7.34289063 12.56980469 7.68578125 13.26460937 8.0390625 13.98046875 
C8.71389433 15.34816227 9.38504506 16.71767911 10.05224609 18.08911133 
C10.90545383 19.80937329 11.81285747 21.50249899 12.7265625 23.19140625 
C14.67804818 27.49544983 14.56674163 31.36514035 14 36 C12.28284085 
40.15733267 9.83514301 42.66556512 6 45 C1.50049725 46.31940306 
-2.52098407 46.63903997 -6.8125 44.5625 C-10.64303504 41.98802413 
-12.7411048 38.39440438 -14 34 C-14.28953559 29.55196118 -13.74439183 
26.75737515 -11.69921875 22.8125 C-11.21646484 21.86632812 -10.73371094 
20.92015625 -10.23632812 19.9453125 C-9.72521484 18.97335937 -9.21410156 
18.00140625 -8.6875 17 C-7.93823242 15.54207031 -7.93823242 15.54207031 
-7.17382812 14.0546875 C-6.21359633 12.18764078 -5.24881568 10.32292429 
-4.27880859 8.4609375 C-2.82099249 5.65551819 -1.40236401 2.83344537 0 0 Z 
" fill="#050505" transform="translate(1133,242)"/>
<path d="M0 0 C0.66 0 1.32 0 2 0 C2.35827881 0.74685059 2.71655762 
1.49370117 3.08569336 2.26318359 C4.70279345 5.63387007 6.32014356 
9.00443652 7.9375 12.375 C8.50146484 13.550625 9.06542969 14.72625 
9.64648438 15.9375 C10.18466797 17.05898437 10.72285156 18.18046875 
11.27734375 19.3359375 C11.77484131 20.37282715 12.27233887 21.4097168 
12.78491211 22.47802734 C13.51344307 23.99012797 14.24937284 25.49874568 
15 27 C15.37155705 32.57335568 15.24782829 36.23651851 12 41 C8.36506991 
44.45318359 5.38295567 45.31702533 0.5 45.5625 C-3.21164402 45.42615389 
-5.6284781 45.07847438 -8.5625 42.75 C-12.33470386 38.49418026 -13.5713173 
35.27336096 -13.44091797 29.63964844 C-12.5286744 24.17830984 -9.6592243 
19.45296186 -7.0625 14.625 C-5.94800896 12.49281942 -4.83467219 
10.36003499 -3.72265625 8.2265625 C-3.22515869 7.29408691 -2.72766113 
6.36161133 -2.21508789 5.40087891 C-0.90382532 2.955209 -0.90382532 
2.955209 0 0 Z " fill="#040404" transform="translate(1111,203)"/>
<path d="M0 0 C10.89 0 21.78 0 33 0 C33.99 2.76375 34.98 5.5275 36 8.375 
C36.31324219 9.24431152 36.62648438 10.11362305 36.94921875 11.00927734 
C37.19285156 11.6945752 37.43648437 12.37987305 37.6875 13.0859375 
C37.93886719 13.7876709 38.19023438 14.4894043 38.44921875 15.21240234 C39 
17 39 17 39 19 C24.48 19 9.96 19 -5 19 C-4 12 -4 12 0 0 Z " fill="#030303" 
transform="translate(926,255)"/>
<path d="M0 0 C10.89 0 21.78 0 33 0 C38 15 38 15 38 19 C23.48 19 8.96 19 
-6 19 C-3 8 -3 8 0 0 Z " fill="#020202" transform="translate(872,255)"/>
<path d="M0 0 C10.89 0 21.78 0 33 0 C33.99 2.76375 34.98 5.5275 36 8.375 
C36.31324219 9.24431152 36.62648438 10.11362305 36.94921875 11.00927734 
C37.19285156 11.6945752 37.43648437 12.37987305 37.6875 13.0859375 
C37.93886719 13.7876709 38.19023438 14.4894043 38.44921875 15.21240234 C39 
17 39 17 39 19 C24.48 19 9.96 19 -5 19 C-4 12 -4 12 0 0 Z " fill="#030303" 
transform="translate(899,225)"/>
<path d="M0 0 C1.5 1.0625 1.5 1.0625 3 3 C3.1875 6.6875 3.1875 6.6875 3 10 
C4.65 9.67 6.3 9.34 8 9 C7.125 14.75 7.125 14.75 6 17 C6.66 17 7.32 17 8 
17 C8.02911321 20.0833134 8.04683682 23.16659125 8.0625 26.25 C8.07087891 
27.12269531 8.07925781 27.99539062 8.08789062 28.89453125 C8.09111328 
29.73886719 8.09433594 30.58320313 8.09765625 31.453125 C8.10289307 
32.22817383 8.10812988 33.00322266 8.11352539 33.80175781 C8.00036998 
35.99283598 7.60552448 37.89637861 7 40 C7.33 40 7.66 40 8 40 C8.36116409 
43.25047681 8.30929204 44.58761061 6.3125 47.25 C3.67765762 49.24393477 
2.31195977 50 -1 50 C-3.75 48.4375 -3.75 48.4375 -6 46 C-6.8125 42.75 
-6.8125 42.75 -7 40 C-6.01 39.505 -6.01 39.505 -5 39 C-5.66 38.34 -6.32 
37.68 -7 37 C-7.125 34.375 -7.125 34.375 -7 32 C-6.34 32 -5.68 32 -5 32 
C-5.66 31.01 -6.32 30.02 -7 29 C-7.125 26.5 -7.125 26.5 -7 24 C-7 23.01 -7 
22.02 -7 21 C-7 17 -7 13 -7 9 C-4.525 9.495 -4.525 9.495 -2 10 C-1.855625 
8.72125 -1.71125 7.4425 -1.5625 6.125 C-1.29357254 3.74307106 -1.07773654 
2.15547309 0 0 Z " fill="#DBDBDB" transform="translate(1015,108)"/>
<path d="M0 0 C0.66 0.33 1.32 0.66 2 1 C3.1577506 4.47325181 3.06866652 
7.36067448 3 11 C4.65 10.34 6.3 9.68 8 9 C7.814375 10.051875 7.62875 
11.10375 7.4375 12.1875 C6.78639483 15.830589 6.78639483 15.830589 7.6875 
18.625 C8 21 8 21 6.3125 23.75 C4.05836134 25.94321599 3.05957468 
26.67218843 0 27 C0.33 27.66 0.66 28.32 1 29 C3.31 27.68 5.62 26.36 8 25 
C7.125 30.75 7.125 30.75 6 33 C6.66 33 7.32 33 8 33 C7.814375 33.969375 
7.62875 34.93875 7.4375 35.9375 C7.293125 36.948125 7.14875 37.95875 7 39 
C7.33 39.33 7.66 39.66 8 40 C7.65116279 46.27906977 7.65116279 46.27906977 
5.25 48.9375 C2.45370167 50.25797421 1.05488134 50.59607441 -2 50 C-4.8125 
47.8125 -4.8125 47.8125 -7 45 C-7.3125 42.1875 -7.3125 42.1875 -7 40 
C-5.68 40.66 -4.36 41.32 -3 42 C-3 41.34 -3 40.68 -3 40 C-3.99 39.67 -4.98 
39.34 -6 39 C-6.77112541 34.27685687 -7.09764874 29.78478822 -7 25 C-6.34 
25 -5.68 25 -5 25 C-5.49113281 24.20335937 -5.49113281 24.20335937 
-5.9921875 23.390625 C-7.2642989 20.37305843 -7.1959363 18.01306977 -7.125 
14.75 C-7.10695313 13.67234375 -7.08890625 12.5946875 -7.0703125 11.484375 
C-7.04710937 10.66453125 -7.02390625 9.8446875 -7 9 C-4.525 9.99 -4.525 
9.99 -2 11 C-1.93941406 10.37351563 -1.87882812 9.74703125 -1.81640625 
9.1015625 C-1.73261719 8.28429687 -1.64882812 7.46703125 -1.5625 6.625 
C-1.48128906 5.81289062 -1.40007812 5.00078125 -1.31640625 4.1640625 C-1 2 
-1 2 0 0 Z " fill="#E1E1E1" transform="translate(1035,124)"/>
<path d="M0 0 C0.66 0.33 1.32 0.66 2 1 C3.1577506 4.47325181 3.06866652 
7.36067448 3 11 C4.65 10.34 6.3 9.68 8 9 C7.814375 10.051875 7.62875 
11.10375 7.4375 12.1875 C6.78639483 15.830589 6.78639483 15.830589 7.6875 
18.625 C8 21 8 21 6.3125 23.75 C3.98862946 26.01106323 3.0691444 
26.47083717 0 27 C-0.33 27.66 -0.66 28.32 -1 29 C-4.54501711 26.7548225 
-5.74708246 24.9824879 -7 21 C-7.1953125 17.88671875 -7.1953125 
17.88671875 -7.125 14.6875 C-7.10695313 13.61886719 -7.08890625 
12.55023438 -7.0703125 11.44921875 C-7.03550781 10.23685547 -7.03550781 
10.23685547 -7 9 C-4.525 9.99 -4.525 9.99 -2 11 C-1.93941406 10.37351563 
-1.87882812 9.74703125 -1.81640625 9.1015625 C-1.73261719 8.28429687 
-1.64882812 7.46703125 -1.5625 6.625 C-1.48128906 5.81289062 -1.40007812 
5.00078125 -1.31640625 4.1640625 C-1 2 -1 2 0 0 Z " fill="#DDDDDD" 
transform="translate(1035,124)"/>
<path d="M0 0 C0.33 0 0.66 0 1 0 C1 1.65 1 3.3 1 5 C2.98 4.01 4.96 3.02 7 
2 C7.84454356 5.37817425 8.10844919 7.67465243 7 11 C7.33 11 7.66 11 8 11 
C8.36116409 14.25047681 8.30929204 15.58761061 6.3125 18.25 C3.67765762 
20.24393477 2.31195977 21 -1 21 C-3.75 19.4375 -3.75 19.4375 -6 17 
C-6.8125 13.75 -6.8125 13.75 -7 11 C-6.34 10.67 -5.68 10.34 -5 10 C-5.66 
9.34 -6.32 8.68 -7 8 C-7.125 5.375 -7.125 5.375 -7 3 C-6.01 2.67 -5.02 
2.34 -4 2 C-1.8125 3.4375 -1.8125 3.4375 0 5 C0 3.35 0 1.7 0 0 Z " 
fill="#E2E2E2" transform="translate(1015,137)"/>
<path d="M0 0 C0.66 0 1.32 0 2 0 C2 12.87 2 25.74 2 39 C1.01 39 0.02 39 -1 
39 C-1.11145896 25.95415744 -1.05736038 13.00930892 0 0 Z " fill="#0E0E0E" 
transform="translate(1015,160)"/>
<path d="M0 0 C0.99 0 1.98 0 3 0 C3 7.59 3 15.18 3 23 C2.01 23 1.02 23 0 
23 C0 15.41 0 7.82 0 0 Z " fill="#202020" 
transform="translate(1034,176)"/>
<path d="M0 0 C0.66 0 1.32 0 2 0 C2 7.59 2 15.18 2 23 C1.01 23 0.02 23 -1 
23 C-1.02911321 19.9166866 -1.04683682 16.83340875 -1.0625 13.75 
C-1.07087891 12.87730469 -1.07925781 12.00460938 -1.08789062 11.10546875 
C-1.09111328 10.26113281 -1.09433594 9.41679687 -1.09765625 8.546875 
C-1.10551147 7.38430176 -1.10551147 7.38430176 -1.11352539 6.19824219 
C-1.00036998 4.00716402 -0.60552448 2.10362139 0 0 Z " fill="#1D1D1D" 
transform="translate(995,176)"/>
<path d="M0 0 C0.33 0.66 0.66 1.32 1 2 C0.2578125 3.91015625 0.2578125 
3.91015625 -0.875 6.0625 C-1.42800781 7.13177734 -1.42800781 7.13177734 
-1.9921875 8.22265625 C-3 10 -3 10 -4 11 C-5.41570123 11.08651611 
-6.835595 11.10704904 -8.25390625 11.09765625 C-9.10791016 11.09443359 
-9.96191406 11.09121094 -10.84179688 11.08789062 C-11.73962891 11.07951172 
-12.63746094 11.07113281 -13.5625 11.0625 C-14.46419922 11.05798828 
-15.36589844 11.05347656 -16.29492188 11.04882812 C-18.53001314 
11.03700225 -20.76497437 11.0205222 -23 11 C-23 10.67 -23 10.34 -23 10 
C-17.06 10 -11.12 10 -5 10 C-4.67 8.35 -4.34 6.7 -4 5 C-1.9375 2.1875 
-1.9375 2.1875 0 0 Z " fill="#AFAFAF" transform="translate(1735,766)"/>
<path d="M0 0 C0.66 0.33 1.32 0.66 2 1 C2.4140625 3.06640625 2.4140625 
3.06640625 2.625 5.5625 C2.69976563 6.38878906 2.77453125 7.21507812 
2.8515625 8.06640625 C2.90054687 8.70449219 2.94953125 9.34257812 3 10 
C2.01 10.66 1.02 11.32 0 12 C-2 10 -2 10 -2.01171875 8.125 C-1.90472656 
7.42375 -1.79773437 6.7225 -1.6875 6 C-1.58824219 5.29875 -1.48898437 
4.5975 -1.38671875 3.875 C-1 2 -1 2 0 0 Z " fill="#161616" 
transform="translate(1035,124)"/>
<path d="M0 0 C0.99 0.66 1.98 1.32 3 2 C3.40843923 4.71203652 3.13336867 
7.2437142 3 10 C1.68 10 0.36 10 -1 10 C-1.33 9.67 -1.66 9.34 -2 9 
C-1.30232558 2.60465116 -1.30232558 2.60465116 0 0 Z " fill="#1C1C1C" 
transform="translate(995,125)"/>
<path d="M0 0 C1.5 1.0625 1.5 1.0625 3 3 C3.1875 6.6875 3.1875 6.6875 3 10 
C1.0625 10.5625 1.0625 10.5625 -1 11 C-1.33 10.67 -1.66 10.34 -2 10 
C-1.29411765 2.58823529 -1.29411765 2.58823529 0 0 Z " fill="#191919" 
transform="translate(1015,108)"/>
<path d="M0 0 C2.91517292 1.07401108 4.77810176 1.77810176 7 4 C7.125 
7.125 7.125 7.125 7 10 C4.0625 8.375 4.0625 8.375 1 6 C0.125 2.75 0.125 
2.75 0 0 Z " fill="#141414" transform="translate(1028,149)"/>
<path d="M0 0 C2.49361571 1.20381448 4.68143083 2.45428722 7 4 C7.1875 
7.125 7.1875 7.125 7 10 C3.73539027 8.19587357 2.11070205 7.16605307 0 4 
C0 2.68 0 1.36 0 0 Z " fill="#141414" transform="translate(1008,148)"/>
<path d="M0 0 C2.91517292 1.07401108 4.77810176 1.77810176 7 4 C7.125 
7.125 7.125 7.125 7 10 C4.0625 8.375 4.0625 8.375 1 6 C0.125 2.75 0.125 
2.75 0 0 Z " fill="#141414" transform="translate(988,141)"/>
<path d="M0 0 C3.465 1.98 3.465 1.98 7 4 C7 5.98 7 7.96 7 10 C4.37098712 
8.47793991 2.15634036 7.15634036 0 5 C-0.125 2.375 -0.125 2.375 0 0 Z " 
fill="#151515" transform="translate(1028,133)"/>
<path d="M0 0 C2.49361571 1.20381448 4.68143083 2.45428722 7 4 C7.1875 
7.125 7.1875 7.125 7 10 C3.73539027 8.19587357 2.11070205 7.16605307 0 4 
C0 2.68 0 1.36 0 0 Z " fill="#151515" transform="translate(988,133)"/>
<path d="M0 0 C-0.125 2.75 -0.125 2.75 -1 6 C-4.0625 8.375 -4.0625 8.375 
-7 10 C-7.3125 7.25 -7.3125 7.25 -7 4 C-3 0 -3 0 0 0 Z " fill="#141414" 
transform="translate(1023,125)"/>
<path d="M0 0 C2.91517292 1.07401108 4.77810176 1.77810176 7 4 C7.125 
7.125 7.125 7.125 7 10 C4.0625 8.375 4.0625 8.375 1 6 C0.125 2.75 0.125 
2.75 0 0 Z " fill="#141414" transform="translate(1008,117)"/>
<path d="M0 0 C-0.48979592 6.48979592 -0.48979592 6.48979592 -2.9375 
8.9375 C-5 10 -5 10 -7 10 C-7.375 7.8125 -7.375 7.8125 -7 5 C-2.5 0 -2.5 0 
0 0 Z " fill="#121212" transform="translate(1043,164)"/>
<path d="M0 0 C-0.48941176 5.50588235 -0.48941176 5.50588235 -2.9375 7.875 
C-5 9 -5 9 -7 9 C-7.3125 6.75 -7.3125 6.75 -7 4 C-2.89189189 0 -2.89189189 
0 0 0 Z " fill="#111111" transform="translate(1043,157)"/>
<path d="M0 0 C2.91517292 1.07401108 4.77810176 1.77810176 7 4 C7.125 
7.125 7.125 7.125 7 10 C4.0625 8.375 4.0625 8.375 1 6 C0.125 2.75 0.125 
2.75 0 0 Z " fill="#121212" transform="translate(988,149)"/>
<path d="M0 0 C0.85178626 2.38500154 1.09806909 3.6665651 0.375 6.125 
C-1.41247034 8.56245955 -3.1632534 9.10418528 -6 10 C-6.375 7.8125 -6.375 
7.8125 -6 5 C-4.16038352 3.00977164 -2.20813852 1.61010101 0 0 Z " 
fill="#121212" transform="translate(1022,140)"/>
<path d="M0 0 C3.465 1.98 3.465 1.98 7 4 C7 5.98 7 7.96 7 10 C4.37098712 
8.47793991 2.15634036 7.15634036 0 5 C-0.125 2.375 -0.125 2.375 0 0 Z " 
fill="#131313" transform="translate(1008,140)"/>
<path d="M0 0 C-0.48941176 5.50588235 -0.48941176 5.50588235 -2.9375 7.875 
C-5 9 -5 9 -7 9 C-7.3125 6.75 -7.3125 6.75 -7 4 C-2.89189189 0 -2.89189189 
0 0 0 Z " fill="#111111" transform="translate(1023,133)"/>
<path d="M0 0 C5.875 3.875 5.875 3.875 7 5 C7.04063832 6.66617115 7.042721 
8.33388095 7 10 C4.13904359 8.7175023 1.88634082 7.54656011 0 5 C-0.1875 
2.3125 -0.1875 2.3125 0 0 Z " fill="#101010" 
transform="translate(1028,164)"/>
<path d="M0 0 C4.75 1.875 4.75 1.875 7 3 C7 4.98 7 6.96 7 9 C4.13998967 
7.71792641 1.92960588 6.50848764 0 4 C0 2.68 0 1.36 0 0 Z " fill="#111111" 
transform="translate(988,165)"/>
<path d="M0 0 C2.91517292 1.07401108 4.77810176 1.77810176 7 4 C7.125 
6.625 7.125 6.625 7 9 C3.34683329 7.75023244 2.21934164 7.32901247 0 4 C0 
2.68 0 1.36 0 0 Z " fill="#0F0F0F" transform="translate(1028,157)"/>
<path d="M0 0 C2.91517292 1.07401108 4.77810176 1.77810176 7 4 C7.125 
6.625 7.125 6.625 7 9 C3.34683329 7.75023244 2.21934164 7.32901247 0 4 C0 
2.68 0 1.36 0 0 Z " fill="#101010" transform="translate(988,157)"/>
<path d="M0 0 C0.8125 1.6875 0.8125 1.6875 1 4 C-1.1613627 6.51185394 
-3.01962439 8.50981219 -6 10 C-6.375 7.25 -6.375 7.25 -6 4 C-3 1.625 -3 
1.625 0 0 Z " fill="#0F0F0F" transform="translate(1042,149)"/>
<path d="M0 0 C0.25 2.25 0.25 2.25 0 5 C-2.2477854 7.79035429 -3.57730016 
8.85910005 -7 10 C-7.375 7.8125 -7.375 7.8125 -7 5 C-2.5 0 -2.5 0 0 0 Z " 
fill="#0F0F0F" transform="translate(1023,148)"/>
<path d="M0 0 C3.465 1.98 3.465 1.98 7 4 C7 5.98 7 7.96 7 10 C4.0625 8.375 
4.0625 8.375 1 6 C0.125 2.75 0.125 2.75 0 0 Z " fill="#0F0F0F" 
transform="translate(1028,141)"/>
<path d="M0 0 C0.75 1.6875 0.75 1.6875 1 4 C-1.13381449 7.2769294 
-2.25018012 8.75006004 -6 10 C-5.8125 6.6875 -5.8125 6.6875 -5 3 C-2.4375 
1.0625 -2.4375 1.0625 0 0 Z " fill="#0E0E0E" 
transform="translate(1042,141)"/>
<path d="M0 0 C0.85178626 2.38500154 1.09806909 3.6665651 0.375 6.125 
C-1.41247034 8.56245955 -3.1632534 9.10418528 -6 10 C-6.375 7.8125 -6.375 
7.8125 -6 5 C-4.16038352 3.00977164 -2.20813852 1.61010101 0 0 Z " 
fill="#0F0F0F" transform="translate(1042,133)"/>
<path d="M0 0 C2.91517292 1.07401108 4.77810176 1.77810176 7 4 C7.125 
6.625 7.125 6.625 7 9 C3.34683329 7.75023244 2.21934164 7.32901247 0 4 C0 
2.68 0 1.36 0 0 Z " fill="#101010" transform="translate(1008,125)"/>
<path d="M0 0 C2.91517292 1.07401108 4.77810176 1.77810176 7 4 C7.125 
6.625 7.125 6.625 7 9 C4.13998967 7.71792641 1.92960588 6.50848764 0 4 C0 
2.68 0 1.36 0 0 Z " fill="#0C0C0C" transform="translate(1008,133)"/>
<path d="M0 0 C0.75 1.6875 0.75 1.6875 1 4 C-1.13381449 7.2769294 
-2.25018012 8.75006004 -6 10 C-6.375 7.8125 -6.375 7.8125 -6 5 
C-4.16038352 3.00977164 -2.20813852 1.61010101 0 0 Z " fill="#0C0C0C" 
transform="translate(1022,117)"/>
<path d="M0 0 C-0.1875 3.3125 -0.1875 3.3125 -1 7 C-3.5625 8.9375 -3.5625 
8.9375 -6 10 C-6.3125 7.25 -6.3125 7.25 -6 4 C-1.89473684 0 -1.89473684 0 
0 0 Z " fill="#131313" transform="translate(1003,141)"/>
<path d="M0 0 C-0.1875 3.3125 -0.1875 3.3125 -1 7 C-3.5625 8.9375 -3.5625 
8.9375 -6 10 C-6.3125 7.25 -6.3125 7.25 -6 4 C-1.89473684 0 -1.89473684 0 
0 0 Z " fill="#121212" transform="translate(1003,133)"/>
<path d="M0 0 C-0.1875 2.8125 -0.1875 2.8125 -1 6 C-3.5625 7.875 -3.5625 
7.875 -6 9 C-6.25 6.1875 -6.25 6.1875 -6 3 C-3.95959224 0.95959224 
-2.91674756 0 0 0 Z " fill="#101010" transform="translate(1003,165)"/>
<path d="M0 0 C-0.61016949 5.49152542 -0.61016949 5.49152542 -2.4375 7.875 
C-4 9 -4 9 -6 9 C-6.25 6.1875 -6.25 6.1875 -6 3 C-3.95959224 0.95959224 
-2.91674756 0 0 0 Z " fill="#111111" transform="translate(1003,157)"/>
<path d="M0 0 C0.8125 1.625 0.8125 1.625 1 4 C-0.45145896 6.29767635 
-2.10430963 8.01403866 -4 10 C-4.33 10 -4.66 10 -5 10 C-5.3125 7.25 
-5.3125 7.25 -5 4 C-2.5 1.625 -2.5 1.625 0 0 Z " fill="#0C0C0C" 
transform="translate(1002,149)"/>
<path d="M0 0 C0 0.66 0 1.32 0 2 C-3.96 2 -7.92 2 -12 2 C-4.8 -1.6 -4.8 
-1.6 0 0 Z " fill="#C2B6B6" transform="translate(480,771)"/>
<path d="M0 0 C1.6396875 0.2475 1.6396875 0.2475 3.3125 0.5 C6.87525873 
1.06718184 6.87525873 1.06718184 10 1 C8.68 2.32 7.36 3.64 6 5 C3.5625 
4.1875 3.5625 4.1875 1 3 C0.67 2.01 0.34 1.02 0 0 Z " fill="#D4D4D4" 
transform="translate(1011,148)"/>
<path d="M0 0 C2.97 0 5.94 0 9 0 C7.25 2.0625 7.25 2.0625 5 4 C2.8125 
3.9375 2.8125 3.9375 1 3 C0.67 2.01 0.34 1.02 0 0 Z " fill="#D4D4D4" 
transform="translate(1032,165)"/>
</svg>
